<?xml version="1.0" standalone="no"?>
<!DOCTYPE svg PUBLIC "-//W3C//DTD SVG 20010904//EN"
 "http://www.w3.org/TR/2001/REC-SVG-20010904/DTD/svg10.dtd">
<svg version="1.0" xmlns="http://www.w3.org/2000/svg"
 width="180.000000pt" height="180.000000pt" viewBox="0 0 180.000000 180.000000"
 preserveAspectRatio="xMidYMid meet">
<metadata>
Created by potrace 1.14, written by Peter Selinger 2001-2017
</metadata>
<g transform="translate(0.000000,180.000000) scale(0.100000,-0.100000)"
fill="#000000" stroke="none">
<path d="M289 1787 c-93 -26 -184 -96 -232 -178 -58 -98 -57 -92 -54 -729 l2
-585 33 -67 c42 -85 104 -148 189 -190 l68 -33 570 -3 c415 -3 585 0 625 8
154 34 270 152 300 305 8 42 10 229 8 625 l-3 565 -33 68 c-42 85 -105 147
-190 189 l-67 33 -585 2 c-444 2 -596 -1 -631 -10z"/>
</g>
</svg>
